<svg xmlns="http://www.w3.org/2000/svg">
    <symbol id="logo">
        <path d="M7.851 19.4978H10.3601C10.1874 20.6703 9.66941 21.6114 8.80607 22.3213C7.95352 23.0313 6.86355 23.3862 5.53617 23.3862C3.7987 23.3862 2.43894 22.843 1.45689 21.7566C0.485629 20.6595 0 19.2128 0 17.4165C0 15.6202 0.491025 14.1788 1.47307 13.0924C2.45512 11.9953 3.80949 11.4467 5.53617 11.4467C6.7988 11.4467 7.851 11.7748 8.69276 12.4309C9.53451 13.0763 10.0525 13.9368 10.2468 15.0124H7.7215C7.45171 14.0659 6.72326 13.5926 5.53617 13.5926C4.54333 13.5926 3.78251 13.9529 3.25371 14.6736C2.73571 15.3835 2.47671 16.2978 2.47671 17.4165C2.47671 18.5351 2.73571 19.4548 3.25371 20.1755C3.78251 20.8854 4.54333 21.2403 5.53617 21.2403C6.1513 21.2403 6.65851 21.0897 7.05781 20.7886C7.46789 20.4766 7.73229 20.0464 7.851 19.4978Z"/>
        <path d="M22.012 11.6565V13.7701H18.4184V23.1765H16.0064V13.7701H12.4127V11.6565H22.012Z"/>
        <path d="M28.6894 16.8195H29.1427L31.587 11.6565H34.0313L28.4952 23.1765H26.0832L27.7343 19.7237L23.4608 11.6565H25.9861L28.6894 16.8195Z"/>
        <path d="M45.1637 21.0306H46.8149V26H44.4677V23.1765H36.8757V26H34.5285V21.0306H35.7263C36.6436 19.4064 37.1023 17.126 37.1023 14.1896V11.6565H45.1637V21.0306ZM42.8165 21.0306V13.8024H39.3362V14.8188C39.3362 17.5079 38.9477 19.5785 38.1707 21.0306H42.8165Z"/>
        <path d="M49.5559 11.6565H51.806V19.6914H52.2268L56.3871 11.6565H59.6408V23.1765H57.3745V14.964H56.9536L52.6963 23.1765H49.5559V11.6565Z"/>
        <path d="M64.3366 23.1765V11.6565H66.7485V16.158H69.4843L71.6048 11.6565H74.0977L71.5077 17.2551L74.2434 23.1765H71.7505L69.5004 18.3361H66.7485V23.1765H64.3366Z"/>
        <path d="M85.5557 23.1765L84.6168 20.0625H80.2137L79.2749 23.1765H76.8953L80.5699 11.6565H84.3092L88 23.1765H85.5557ZM82.0429 13.9637L80.8289 17.965H83.9693L82.7552 13.9637H82.0429Z"/>
        <path d="M38.1583 2H35.629L32.5938 8.05042H35.1231L38.1583 2Z"/>
    </symbol>
    <symbol id="location">
        <path d="M7.55404 18.5638L21.9471 8.59494C22.4542 8.24375 23.0659 8.71826 22.8519 9.29672L16.7764 25.717C16.5704 26.2738 15.8135 26.323 15.6136 25.7927L13.6839 20.6718C13.607 20.4677 13.4267 20.3279 13.2099 20.3042L7.77002 19.7088C7.20659 19.6471 7.06601 18.9018 7.55404 18.5638Z"
              fill="#A2A2A2"/>
        <rect x="0.5" y="0.5" width="31" height="31" rx="15.5"/>
    </symbol>
    <symbol id="search">
        <path fill-rule="evenodd" clip-rule="evenodd"
              d="M9.7 15.65C9.7 12.3639 12.3639 9.7 15.65 9.7C18.9361 9.7 21.6 12.3639 21.6 15.65C21.6 17.2528 20.9662 18.7076 19.9356 19.7774C19.9063 19.7999 19.8781 19.8246 19.8513 19.8515C19.8245 19.8783 19.7998 19.9065 19.7773 19.9358C18.7075 20.9663 17.2527 21.6 15.65 21.6C12.3639 21.6 9.7 18.9361 9.7 15.65ZM20.4249 21.6272C19.1162 22.674 17.4562 23.3 15.65 23.3C11.425 23.3 8 19.875 8 15.65C8 11.425 11.425 8 15.65 8C19.875 8 23.3 11.425 23.3 15.65C23.3 17.4563 22.674 19.1164 21.627 20.4251L24.7509 23.549C25.0828 23.8809 25.0828 24.4191 24.7509 24.751C24.4189 25.083 23.8807 25.083 23.5488 24.751L20.4249 21.6272Z"/>
    </symbol>
    <symbol id="arrow-right">
        <path d="M13 11L19 17L13 23" stroke-linecap="round"/>
    </symbol>
    <symbol id="heart">
        <path d="M9.5 16.0125L8.4125 15.0225C4.55 11.52 2 9.21 2 6.375C2 4.065 3.815 2.25 6.125 2.25C7.43 2.25 8.6825 2.8575 9.5 3.8175C10.3175 2.8575 11.57 2.25 12.875 2.25C15.185 2.25 17 4.065 17 6.375C17 9.21 14.45 11.52 10.5875 15.03L9.5 16.0125Z"
              fill="#A7A7A7"/>
    </symbol>
</svg>
